<mxfile host="app.diagrams.net">
  <diagram name="BMC_Input - Complete Architecture" id="complete_arch">
    <mxGraphModel dx="2000" dy="1200" grid="1" gridSize="10">
      <root>
        <mxCell id="0"/>
        <mxCell id="1" parent="0"/>
        
        <!-- Header -->
        <mxCell id="header" value="BMC_Input - Sistema Regulatorio AWS" style="rounded=0;whiteSpace=wrap;html=1;fillColor=#232F3E;strokeColor=none;fontColor=#FFFFFF;fontSize=20;fontStyle=1;align=center;" vertex="1" parent="1">
          <mxGeometry x="50" y="20" width="1800" height="60" as="geometry"/>
        </mxCell>
        
        <!-- On-Premise -->
        <mxCell id="onprem" value="On-Premise / External Systems" style="rounded=1;whiteSpace=wrap;html=1;fillColor=#FFEBEE;strokeColor=#D32F2F;strokeWidth=3;fontSize=14;fontStyle=1;verticalAlign=top;spacingTop=15;dashed=1;" vertex="1" parent="1">
          <mxGeometry x="50" y="100" width="350" height="200" as="geometry"/>
        </mxCell>
        
        <!-- Users -->
        <mxCell id="users" value="BMC Users&#10;Reguladores&#10;10K concurrent" style="sketch=0;outlineConnect=0;fontColor=#232F3E;gradientColor=none;fillColor=#232F3D;strokeColor=none;shape=mxgraph.aws4.users;" vertex="1" parent="1">
          <mxGeometry x="100" y="150" width="50" height="50" as="geometry"/>
        </mxCell>
        
        <!-- DIAN API -->
        <mxCell id="dian" value="DIAN API&#10;Clasificaciones&#10;Regulatorias" style="sketch=0;outlineConnect=0;fontColor=#232F3E;gradientColor=none;fillColor=#607D8B;strokeColor=none;shape=mxgraph.aws4.internet_gateway;" vertex="1" parent="1">
          <mxGeometry x="250" y="150" width="50" height="50" as="geometry"/>
        </mxCell>
        
        <!-- SFTP Systems -->
        <mxCell id="sftp" value="SFTP Systems&#10;Intercambio&#10;Regulatorio" style="sketch=0;outlineConnect=0;fontColor=#232F3E;gradientColor=none;fillColor=#795548;strokeColor=none;shape=mxgraph.aws4.storage_gateway;" vertex="1" parent="1">
          <mxGeometry x="175" y="230" width="50" height="50" as="geometry"/>
        </mxCell>
        
        <!-- AWS Cloud -->
        <mxCell id="aws" value="AWS Cloud - us-east-1 (Multi-AZ)" style="rounded=1;whiteSpace=wrap;html=1;fillColor=#E3F2FD;strokeColor=#1976D2;strokeWidth=4;fontSize=16;fontStyle=1;verticalAlign=top;spacingTop=20;" vertex="1" parent="1">
          <mxGeometry x="450" y="100" width="1400" height="900" as="geometry"/>
        </mxCell>
        
        <!-- Edge Security -->
        <mxCell id="edge" value="Edge Security &amp; CDN Layer" style="rounded=1;whiteSpace=wrap;html=1;fillColor=#FFF3E0;strokeColor=#FF9800;strokeWidth=2;fontSize=12;fontStyle=1;verticalAlign=top;spacingTop=10;" vertex="1" parent="1">
          <mxGeometry x="500" y="150" width="600" height="120" as="geometry"/>
        </mxCell>
        
        <!-- CloudFront -->
        <mxCell id="cloudfront" value="CloudFront&#10;Global CDN&#10;SSL Termination&#10;Edge Locations" style="sketch=0;outlineConnect=0;fontColor=#232F3E;gradientColor=#F78E04;gradientDirection=north;fillColor=#D05C17;strokeColor=#ffffff;shape=mxgraph.aws4.cloudfront;" vertex="1" parent="1">
          <mxGeometry x="550" y="190" width="45" height="45" as="geometry"/>
        </mxCell>
        
        <!-- WAF -->
        <mxCell id="waf" value="AWS WAF&#10;DDoS Protection&#10;Rate Limiting&#10;Geo Blocking" style="sketch=0;outlineConnect=0;fontColor=#232F3E;gradientColor=#F54749;gradientDirection=north;fillColor=#C7131F;strokeColor=#ffffff;shape=mxgraph.aws4.waf;" vertex="1" parent="1">
          <mxGeometry x="700" y="190" width="45" height="45" as="geometry"/>
        </mxCell>
        
        <!-- API Gateway -->
        <mxCell id="api" value="API Gateway&#10;REST + GraphQL&#10;1K req/s&#10;JWT Validation" style="sketch=0;outlineConnect=0;fontColor=#232F3E;gradientColor=#FF4F8B;gradientDirection=north;fillColor=#BC1356;strokeColor=#ffffff;shape=mxgraph.aws4.api_gateway;" vertex="1" parent="1">
          <mxGeometry x="850" y="190" width="45" height="45" as="geometry"/>
        </mxCell>
        
        <!-- Cognito -->
        <mxCell id="cognito" value="Cognito&#10;User Pool&#10;MFA Enabled&#10;Regulatory Auth" style="sketch=0;outlineConnect=0;fontColor=#232F3E;gradientColor=#F54749;gradientDirection=north;fillColor=#C7131F;strokeColor=#ffffff;shape=mxgraph.aws4.cognito;" vertex="1" parent="1">
          <mxGeometry x="1000" y="190" width="45" height="45" as="geometry"/>
        </mxCell>
        
        <!-- Application Layer -->
        <mxCell id="app_layer" value="Application Layer - ECS Fargate Auto Scaling" style="rounded=1;whiteSpace=wrap;html=1;fillColor=#E8F5E8;strokeColor=#4CAF50;strokeWidth=2;fontSize=14;fontStyle=1;verticalAlign=top;spacingTop=15;" vertex="1" parent="1">
          <mxGeometry x="500" y="300" width="1000" height="250" as="geometry"/>
        </mxCell>
        
        <!-- ALB -->
        <mxCell id="alb" value="Application LB&#10;Multi-AZ&#10;Health Checks&#10;Target Groups" style="sketch=0;outlineConnect=0;fontColor=#232F3E;gradientColor=#8C4FFF;gradientDirection=north;fillColor=#5A30B5;strokeColor=#ffffff;shape=mxgraph.aws4.application_load_balancer;" vertex="1" parent="1">
          <mxGeometry x="750" y="350" width="45" height="45" as="geometry"/>
        </mxCell>
        
        
        <!-- Invoice_Service Service -->
        <mxCell id="invoice_service" value="Invoice_Service&#10;2vCPU/4GB&#10;Scale: 2-10&#10;Procesamiento de facturas indi..." style="sketch=0;outlineConnect=0;fontColor=#232F3E;gradientColor=#F78E04;gradientDirection=north;fillColor=#D05C17;strokeColor=#ffffff;shape=mxgraph.aws4.fargate;" vertex="1" parent="1">
          <mxGeometry x="550" y="420" width="50" height="50" as="geometry"/>
        </mxCell>
        <!-- Product_Service Service -->
        <mxCell id="product_service" value="Product_Service&#10;4vCPU/8GB&#10;Scale: 3-15&#10;Gestión de 60M productos migra..." style="sketch=0;outlineConnect=0;fontColor=#232F3E;gradientColor=#F78E04;gradientDirection=north;fillColor=#D05C17;strokeColor=#ffffff;shape=mxgraph.aws4.fargate;" vertex="1" parent="1">
          <mxGeometry x="700" y="420" width="50" height="50" as="geometry"/>
        </mxCell>
        <!-- Ocr_Service Service -->
        <mxCell id="ocr_service" value="Ocr_Service&#10;2vCPU/4GB&#10;Scale: 2-10&#10;Análisis de facturas y matchin..." style="sketch=0;outlineConnect=0;fontColor=#232F3E;gradientColor=#F78E04;gradientDirection=north;fillColor=#D05C17;strokeColor=#ffffff;shape=mxgraph.aws4.fargate;" vertex="1" parent="1">
          <mxGeometry x="850" y="420" width="50" height="50" as="geometry"/>
        </mxCell>
        <!-- Commission_Service Service -->
        <mxCell id="commission_service" value="Commission_Service&#10;1vCPU/2GB&#10;Scale: 2-10&#10;Cálculos de comisión regulator..." style="sketch=0;outlineConnect=0;fontColor=#232F3E;gradientColor=#F78E04;gradientDirection=north;fillColor=#D05C17;strokeColor=#ffffff;shape=mxgraph.aws4.fargate;" vertex="1" parent="1">
          <mxGeometry x="1000" y="420" width="50" height="50" as="geometry"/>
        </mxCell>
        <!-- Certificate_Service Service -->
        <mxCell id="certificate_service" value="Certificate_Service&#10;1vCPU/2GB&#10;Scale: 2-10&#10;Generación de certificados PDF..." style="sketch=0;outlineConnect=0;fontColor=#232F3E;gradientColor=#F78E04;gradientDirection=north;fillColor=#D05C17;strokeColor=#ffffff;shape=mxgraph.aws4.fargate;" vertex="1" parent="1">
          <mxGeometry x="1150" y="420" width="50" height="50" as="geometry"/>
        </mxCell>
        
        <!-- Data Layer -->
        <mxCell id="data_layer" value="Data Layer - Multi-AZ with Backup &amp; Encryption" style="rounded=1;whiteSpace=wrap;html=1;fillColor=#FCE4EC;strokeColor=#E91E63;strokeWidth=2;fontSize=14;fontStyle=1;verticalAlign=top;spacingTop=15;" vertex="1" parent="1">
          <mxGeometry x="500" y="580" width="800" height="200" as="geometry"/>
        </mxCell>
        
        
        <!-- RDS PostgreSQL -->
        <mxCell id="rds_primary" value="RDS PostgreSQL&#10;Base de datos transaccional - 60M produc..." style="sketch=0;outlineConnect=0;fontColor=#232F3E;gradientColor=#4AB29A;gradientDirection=north;fillColor=#116D5B;strokeColor=#ffffff;shape=mxgraph.aws4.rds;" vertex="1" parent="1">
          <mxGeometry x="550" y="630" width="50" height="50" as="geometry"/>
        </mxCell>
        <!-- Redshift Analytics -->
        <mxCell id="redshift_analytics" value="Redshift Analytics&#10;Data warehouse para reportería regulator..." style="sketch=0;outlineConnect=0;fontColor=#232F3E;gradientColor=#4AB29A;gradientDirection=north;fillColor=#116D5B;strokeColor=#ffffff;shape=mxgraph.aws4.redshift;" vertex="1" parent="1">
          <mxGeometry x="700" y="630" width="50" height="50" as="geometry"/>
        </mxCell>
        <!-- S3 Documents -->
        <mxCell id="s3_documents" value="S3 Documents&#10;Almacenamiento de facturas PDF/imágenes" style="sketch=0;outlineConnect=0;fontColor=#232F3E;gradientColor=#4AB29A;gradientDirection=north;fillColor=#116D5B;strokeColor=#ffffff;shape=mxgraph.aws4.s3;" vertex="1" parent="1">
          <mxGeometry x="850" y="630" width="50" height="50" as="geometry"/>
        </mxCell>
        
        <!-- AI/ML Layer -->
        <mxCell id="ai_layer" value="AI/ML Services - OCR &amp; Classification" style="rounded=1;whiteSpace=wrap;html=1;fillColor=#F3E5F5;strokeColor=#9C27B0;strokeWidth=2;fontSize=14;fontStyle=1;verticalAlign=top;spacingTop=15;" vertex="1" parent="1">
          <mxGeometry x="1350" y="580" width="300" height="200" as="geometry"/>
        </mxCell>
        
        <!-- Textract -->
        <mxCell id="textract" value="Amazon Textract&#10;OCR Service&#10;&gt;95% Accuracy&#10;Forms + Tables&#10;Invoice Processing" style="sketch=0;outlineConnect=0;fontColor=#232F3E;gradientColor=#4AB29A;gradientDirection=north;fillColor=#116D5B;strokeColor=#ffffff;shape=mxgraph.aws4.textract;" vertex="1" parent="1">
          <mxGeometry x="1450" y="630" width="50" height="50" as="geometry"/>
        </mxCell>
        
        <!-- Integration Layer -->
        <mxCell id="integration" value="Event-Driven Integration - 10K events/hour" style="rounded=1;whiteSpace=wrap;html=1;fillColor=#FFF8E1;strokeColor=#FFC107;strokeWidth=2;fontSize=14;fontStyle=1;verticalAlign=top;spacingTop=15;" vertex="1" parent="1">
          <mxGeometry x="500" y="810" width="600" height="150" as="geometry"/>
        </mxCell>
        
        <!-- SQS -->
        <mxCell id="sqs" value="SQS FIFO&#10;Processing Queue&#10;5min Visibility&#10;DLQ Enabled" style="sketch=0;outlineConnect=0;fontColor=#232F3E;gradientColor=#FF4F8B;gradientDirection=north;fillColor=#BC1356;strokeColor=#ffffff;shape=mxgraph.aws4.sqs;" vertex="1" parent="1">
          <mxGeometry x="550" y="860" width="45" height="45" as="geometry"/>
        </mxCell>
        
        <!-- SNS -->
        <mxCell id="sns" value="SNS Topics&#10;Notifications&#10;Multi-channel&#10;Email/SMS" style="sketch=0;outlineConnect=0;fontColor=#232F3E;gradientColor=#FF4F8B;gradientDirection=north;fillColor=#BC1356;strokeColor=#ffffff;shape=mxgraph.aws4.sns;" vertex="1" parent="1">
          <mxGeometry x="700" y="860" width="45" height="45" as="geometry"/>
        </mxCell>
        
        <!-- EventBridge -->
        <mxCell id="eventbridge" value="EventBridge&#10;Custom Bus&#10;Event Rules&#10;Regulatory Events" style="sketch=0;outlineConnect=0;fontColor=#232F3E;gradientColor=#FF4F8B;gradientDirection=north;fillColor=#BC1356;strokeColor=#ffffff;shape=mxgraph.aws4.eventbridge;" vertex="1" parent="1">
          <mxGeometry x="850" y="860" width="45" height="45" as="geometry"/>
        </mxCell>
        
        <!-- Monitoring -->
        <mxCell id="monitoring" value="Monitoring &amp; Observability - 99.9% SLA" style="rounded=1;whiteSpace=wrap;html=1;fillColor=#ECEFF1;strokeColor=#607D8B;strokeWidth=2;fontSize=14;fontStyle=1;verticalAlign=top;spacingTop=15;" vertex="1" parent="1">
          <mxGeometry x="1150" y="810" width="400" height="150" as="geometry"/>
        </mxCell>
        
        <!-- CloudWatch -->
        <mxCell id="cloudwatch" value="CloudWatch&#10;Custom Metrics&#10;Regulatory Alarms&#10;Dashboards" style="sketch=0;outlineConnect=0;fontColor=#232F3E;gradientColor=#F34482;gradientDirection=north;fillColor=#BC1356;strokeColor=#ffffff;shape=mxgraph.aws4.cloudwatch;" vertex="1" parent="1">
          <mxGeometry x="1200" y="860" width="45" height="45" as="geometry"/>
        </mxCell>
        
        
        <!-- Performance KPIs -->
        <mxCell id="kpis" value="Performance KPIs\n• Products: 60M\n• Categories: 16000\n• Processing: 10000/hour\n• OCR Accuracy: >95%\n• Matching: >99%\n" style="rounded=1;whiteSpace=wrap;html=1;fillColor=#E1F5FE;strokeColor=#0277BD;fontSize=11;align=left;verticalAlign=top;" vertex="1" parent="1">
          <mxGeometry x="1700" y="300" width="200" height="150" as="geometry"/>
        </mxCell>
        
        
        <!-- Main Flow Connections -->
        <mxCell id="c1" style="endArrow=classic;html=1;strokeColor=#1976D2;strokeWidth=3;fontSize=10;" edge="1" parent="1" source="users" target="cloudfront">
          <mxGeometry width="50" height="50" relative="1" as="geometry">
            <mxPoint x="400" y="400" as="sourcePoint"/>
            <mxPoint x="450" y="350" as="targetPoint"/>
          </mxGeometry>
        </mxCell>
        
        <mxCell id="c2" style="endArrow=classic;html=1;strokeColor=#FF9800;strokeWidth=3;" edge="1" parent="1" source="cloudfront" target="waf"/>
        <mxCell id="c3" style="endArrow=classic;html=1;strokeColor=#FF9800;strokeWidth=3;" edge="1" parent="1" source="waf" target="api"/>
        <mxCell id="c4" style="endArrow=classic;html=1;strokeColor=#FF9800;strokeWidth=2;" edge="1" parent="1" source="api" target="cognito"/>
        <mxCell id="c5" style="endArrow=classic;html=1;strokeColor=#4CAF50;strokeWidth=3;" edge="1" parent="1" source="api" target="alb"/>
        
        <!-- External Connections -->
        <mxCell id="e1" style="endArrow=classic;html=1;strokeColor=#607D8B;strokeWidth=2;dashed=1;" edge="1" parent="1" source="dian" target="api"/>
        <mxCell id="e2" style="endArrow=classic;html=1;strokeColor=#795548;strokeWidth=2;dashed=1;" edge="1" parent="1" source="sftp" target="s3_documents"/>
        
        <!-- Integration Connections -->
        <mxCell id="i1" style="endArrow=classic;html=1;strokeColor=#FFC107;strokeWidth=2;" edge="1" parent="1" source="invoice_service" target="eventbridge"/>
        <mxCell id="i2" style="endArrow=classic;html=1;strokeColor=#FFC107;strokeWidth=2;" edge="1" parent="1" source="eventbridge" target="sqs"/>
        <mxCell id="i3" style="endArrow=classic;html=1;strokeColor=#FFC107;strokeWidth=2;" edge="1" parent="1" source="sqs" target="sns"/>
        
        <!-- Monitoring Connections -->
        <mxCell id="m1" style="endArrow=classic;html=1;strokeColor=#795548;strokeWidth=1;dashed=1;" edge="1" parent="1" source="invoice_service" target="cloudwatch"/>
        <mxCell id="m2" style="endArrow=classic;html=1;strokeColor=#795548;strokeWidth=1;dashed=1;" edge="1" parent="1" source="product_service" target="cloudwatch"/>
        
      </root>
    </mxGraphModel>
  </diagram>
</mxfile>